# xmcd CD database file
#
# Track frame offsets:
#	150
#	2410
#	25370
#	43780
#	76255
#	78495
#	104762
#	126840
#
# Disc length: 1916 seconds
#
# Revision: 0
# Processed by: cddbd v1.5.1PL0 Copyright (c) Steve Scherf et al.
# Submitted via: CDex 1.51
#
DISCID=5c077a08
DTITLE=cali≠gari - 第４実験室
DYEAR=1998
DGENRE=ロック (日本)
TTITLE0=カリガリのコマーシャル「第３実験室」改訂版
TTITLE1=サイレン
TTITLE2=発狂チャンネル
TTITLE3=僕は子宮
TTITLE4=カリガリのコマーシャル「走馬燈」
TTITLE5=夜行列車
TTITLE6=ハクセイ
TTITLE7=グッド・バイ
EXTD=YEAR: 1998
EXTT0=
EXTT1=
EXTT2=
EXTT3=
EXTT4=
EXTT5=
EXTT6=
EXTT7=
PLAYORDER=
